# xmcd
#
# Track frame offsets:
# 151
# 26518
# 49883
# 65606
# 83316
# 119176
# 134482
# 165640
# 191707
# 211566
# 228822
# 261502
# 287287
# 295903
# 312429
#
# Disc length: 4338 seconds
#
#
# Revision: 0
# Processed by: cddbd v1.5.1PL0 Copyright (c) Steve Scherf et al.
# Submitted via: FreeRIP 2.60 
#
DISCID=d910f00f
DTITLE=Stevie Ray Vaughan - Triple Trouble [CDTwo)
DYEAR=2000
DGENRE=Blues
TTITLE0=Come On (Inst.)
TTITLE1=Come On
TTITLE2=Boot Hill
TTITLE3=Testify
TTITLE4=The Sky Is Crying
TTITLE5=Gonna Miss Me
TTITLE6=Say What
TTITLE7=Treat Me Right
TTITLE8=Jimi Shuffle
TTITLE9=You'll Be Mine
TTITLE10=Life Without You
TTITLE11=Boiler Maker
TTITLE12=Slip Sliding Slim
TTITLE13=So Excited
TTITLE14=Shake And Bake
EXTD=Tracks 1-15   Dallas Sound Lab, Dallas, TX - March-May 1985 and Power Station, NYC\n
EXTT0=
EXTT1=
EXTT2=
EXTT3=
EXTT4=
EXTT5=
EXTT6=
EXTT7=
EXTT8=
EXTT9=
EXTT10=
EXTT11=
EXTT12=
EXTT13=
EXTT14=
PLAYORDER=
